<svg xmlns="http://www.w3.org/2000/svg" width="185" height="209.688" viewBox="0 0 48.948 55.48"><path fill="#cec4a5" d="m 24.916794,16.555773 h 5.517799 A 8.1947512,8.1947512 0 0 0 38.629345,8.3610215 V 0 h -5.5178"/><path fill="#41201f" d="M 13.713738,0 H 8.1947512 A 8.1947512,8.1947512 0 0 0 0,8.1947512 v 8.3610218 h 5.5189868"/><path fill="#ee2937" d="m 19.397807,16.555773 h 5.518987 A 8.1947512,8.1947512 0 0 0 33.111545,8.3610215 V 0 h -5.518986"/><path fill="#802729" d="M 19.232725,0 H 13.713738 A 8.1947512,8.1947512 0 0 0 5.5189868,8.1947512 v 8.3610218 h 5.5177992"/><path fill="#b22029" d="m 11.036786,8.1947512 v 8.3610218 h 8.361021 A 8.1947512,8.1947512 0 0 0 27.592559,8.3610215 V 0 h -8.359834 a 8.1947512,8.1947512 0 0 0 -8.195939,8.1947512 z"/><path fill="#232221" d="m 3.4538772,28.954256 c -0.8634693,0 -1.4031376,-0.512685 -1.430121,-1.295204 H 0 c 0.05396683,1.834872 1.5920215,3.23801 3.3999104,3.184043 h 0.026983 c 1.8618557,0 3.3459436,-1.484088 3.372927,-3.345943 0,-1.511072 -0.8364859,-2.482475 -2.725325,-3.130077 -1.430121,-0.485701 -1.753922,-0.755535 -1.753922,-1.430121 0,-0.05397 0,-0.107933 0,-0.1619 0.053967,-0.539668 0.5396683,-0.94442 1.0793366,-0.890453 h 0.053967 c 0.5936352,0 1.0793367,0.458718 1.0793367,1.052353 h 1.996773 C 6.5030033,21.290966 5.126849,19.968779 3.4538772,19.995762 c -1.6459883,-0.02698 -3.02214254,1.295204 -3.07610938,2.941192 0,0.782519 0.323801,1.538055 0.89045278,2.104707 0.4317346,0.431734 0.6745854,0.539668 2.1856566,1.10632 1.0253699,0.377768 1.4031377,0.755535 1.4031377,1.538055 0,0.782519 -0.5396683,1.26822 -1.4031377,1.26822 z"/><path fill="#232221" d="m 12.466338,39.01907 c -0.02698,2.293591 1.834872,4.18243 4.155446,4.209413 2.293591,0.02698 4.18243,-1.834872 4.209413,-4.155446 0,-0.02698 0,-0.02698 0,-0.05397 0.02698,-2.29359 -1.834872,-4.155446 -4.101479,-4.155446 -0.02698,0 -0.02698,0 -0.05397,0 -2.320574,0 -4.209413,1.861856 -4.209413,4.155446 z m 1.888839,0.02698 c 0,-1.268221 1.052354,-2.293591 2.320574,-2.266607 1.268221,0.02698 2.29359,1.052353 2.266607,2.320574 0.02698,1.26822 -0.971403,2.29359 -2.21264,2.320573 -0.02698,0 -0.02698,0 -0.05397,0 -1.26822,0 -2.29359,-0.998386 -2.320574,-2.266607 0,-0.05397 0,-0.08095 0,-0.107933 z"/><path fill="#232221" d="M 5.3966832,50.163221 C 4.9109817,49.785453 4.6951144,49.704503 3.4538772,49.326735 1.8888391,48.895001 1.4031376,48.436282 1.4031376,47.464879 v -0.02698 c 0,-0.998386 0.8095025,-1.780905 1.8078889,-1.780905 1.0523532,0 1.8078889,0.728552 1.8888391,1.834872 h 1.1063201 c 0,-0.02698 0,-0.05397 0,-0.08095 -0.053967,-1.565038 -1.3491708,-2.779292 -2.9142089,-2.752309 -1.6729718,0 -2.94119239,1.187271 -2.94119239,2.779292 -0.0269834,0.701569 0.24285074,1.376154 0.75553569,1.861856 0.4317346,0.431734 0.8904527,0.647602 1.9697893,0.917436 1.6459884,0.404751 2.3475572,1.079337 2.3475572,2.185657 -0.026983,1.160287 -0.971403,2.077723 -2.1316898,2.077723 -1.1872704,0 -1.9967728,-0.782519 -2.1316899,-2.104707 H 0 c 0.08095025,1.861856 1.3761542,3.103093 3.2380099,3.103093 1.7269386,0.02698 3.1570597,-1.322187 3.1840431,-3.049126 0,-0.863469 -0.3777678,-1.699955 -1.0253698,-2.266607 z"/><path fill="#232221" d="m 17.404303,51.836193 c 0,1.619005 -0.944419,2.671358 -2.37454,2.671358 -1.484088,0 -2.374541,-0.998386 -2.374541,-2.671358 v -4.26338 h -1.02537 v 4.26338 c 0,1.079337 0.188884,1.834872 0.647602,2.428507 0.620619,0.782519 1.592022,1.241237 2.617392,1.214254 1.214253,0 2.077723,-0.458718 2.563424,-1.376154 v 1.18727 h 0.998387 v -7.74424 h -1.052354 z"/><path fill="#232221" d="m 26.254864,48.787067 c -0.728552,-0.917436 -1.834873,-1.430121 -2.995159,-1.403138 -2.239624,0 -4.047513,1.807889 -4.047513,4.020529 0,2.239624 1.807889,4.047513 4.047513,4.074496 1.322187,0 2.185656,-0.431735 3.103092,-1.592022 V 55.29007 H 27.3342 V 44.847488 h -1.052353 v 3.939579 z m -3.022143,5.693501 c -1.672972,-0.02698 -3.022142,-1.403138 -2.995159,-3.103093 0,-1.645989 1.322187,-2.995159 2.968176,-3.022143 1.699955,-0.02698 3.076109,1.349171 3.103093,3.022143 -0.02698,1.726938 -1.376155,3.076109 -3.07611,3.103093 z"/><path fill="#232221" d="m 28.332587,44.847488 h 1.02537 v 1.753922 h -1.02537 z"/><path fill="#232221" d="m 28.332587,47.572813 h 1.02537 v 7.744241 h -1.02537 z"/><path fill="#232221" d="m 34.187988,47.383929 c -2.239623,0 -4.047512,1.807889 -4.047512,4.047513 0,2.239623 1.807889,4.047512 4.047512,4.047512 2.239624,0 4.047512,-1.807889 4.047512,-4.047512 0,-2.239624 -1.807888,-4.047513 -4.047512,-4.047513 z m 2.995159,3.993546 c 0.02698,1.753922 -1.295204,3.103093 -2.968176,3.103093 -1.645988,0 -2.995159,-1.349171 -2.995159,-2.99516 -0.08095,-1.645988 1.214254,-3.049126 2.860242,-3.103092 1.645989,-0.08095 3.049126,1.214253 3.103093,2.860242 z"/><path fill="#232221" d="m 9.3632454,36.671513 0.7555356,6.287136 h 1.942806 L 10.469565,32.516067 H 8.4188258 L 6.0173018,39.720639 3.6427612,32.516067 H 1.5920215 L 0,42.985632 h 1.942806 l 0.7555356,-6.314119 c 0.08095,-0.512685 0.1079337,-1.02537 0.1349171,-1.565038 l 2.5634245,7.879157 h 1.2682206 l 2.5634245,-7.852174 c 0.026983,0.512685 0.08095,1.052354 0.1349171,1.538055 z"/><path fill="#232221" d="m 37.479965,41.393611 c -1.241237,0.05397 -2.293591,-0.94442 -2.347557,-2.185657 0,-0.05397 0,-0.107933 0,-0.1619 0,-1.349171 0.944419,-2.347557 2.239623,-2.347557 0.620619,-0.02698 1.241237,0.269834 1.619005,0.755535 l 1.349171,-1.349171 c -0.782519,-0.809502 -1.834872,-1.241237 -2.941192,-1.214253 -2.293591,0.05397 -4.128463,1.969789 -4.047513,4.290363 0.05397,2.21264 1.861856,4.020529 4.074496,4.047512 1.10632,0.02698 2.185657,-0.431734 2.941192,-1.214254 l -1.34917,-1.34917 c -0.404752,0.458718 -0.971403,0.728552 -1.538055,0.728552 z"/><path fill="#232221" d="m 30.248409,35.133458 h 1.888839 v 7.825191 h -1.888839 z"/><path fill="#232221" d="m 11.333035,30.897062 c 0.755535,0 1.511071,-0.242851 2.104706,-0.701569 0.161901,-0.107933 0.323801,-0.215867 0.485702,-0.323801 v 0.809503 h 1.888839 v -7.825191 l -1.726939,-0.02698 h -0.1619 v 0.809502 c -0.647602,-0.674585 -1.538055,-1.052353 -2.482475,-1.079336 -2.2126397,0 -3.9125949,1.780905 -3.9125949,4.128462 -0.026983,2.428508 1.5920215,4.209413 3.8046619,4.209413 z m 0.377768,-6.503003 c 1.241237,-0.02698 2.266606,0.971403 2.29359,2.21264 v 0.134917 c 0,1.376154 -0.971403,2.374541 -2.29359,2.374541 -1.295204,0 -2.3475576,-1.052354 -2.3475576,-2.347558 0,-1.322187 1.0523536,-2.37454 2.3475576,-2.37454 z"/><path fill="#232221" d="m 33.540386,30.897062 c 0.755536,0 1.511071,-0.242851 2.104707,-0.701569 0.1619,-0.107933 0.323801,-0.215867 0.485701,-0.350784 v 0.809502 h 1.888839 v -7.82519 h -1.726938 -0.161901 v 0.809502 c -0.647602,-0.674585 -1.538055,-1.052353 -2.482474,-1.079336 -2.21264,0 -3.912596,1.780905 -3.912596,4.128462 0,2.428508 1.619005,4.209413 3.804662,4.209413 z m 0.404751,-6.503003 c 1.241237,-0.02698 2.266607,0.971403 2.293591,2.21264 v 0.134917 c 0,1.376154 -0.971403,2.374541 -2.293591,2.374541 -1.295204,0 -2.347557,-1.052354 -2.347557,-2.347558 0,-1.322187 1.052353,-2.37454 2.347557,-2.37454 z"/><path fill="#232221" d="m 47.247961,35.133458 h -0.1619 v 0.809503 c -0.647602,-0.674586 -1.538055,-1.052353 -2.482474,-1.079337 -2.21264,0 -3.912596,1.780906 -3.912596,4.128463 0,2.428507 1.619005,4.209413 3.804662,4.209413 0.755536,0 1.511071,-0.242851 2.104706,-0.701569 0.161901,-0.107934 0.323801,-0.215867 0.458719,-0.350784 v 0.809502 h 1.888839 v -7.825191 z m -0.02698,3.912596 c 0,1.34917 -0.971403,2.37454 -2.29359,2.37454 -1.295204,0 -2.347558,-1.052353 -2.347558,-2.347557 0,-1.295204 1.052354,-2.347557 2.347558,-2.347557 1.241237,-0.02698 2.266607,0.944419 2.29359,2.185657 z"/><path fill="#232221" d="m 19.104259,26.9305 c 0,-1.02537 0.08095,-1.457105 0.323801,-1.834872 0.296817,-0.431735 0.782519,-0.701569 1.322187,-0.701569 1.079337,0 1.592021,0.782519 1.592021,2.401524 v 3.858628 h 1.88884 v -4.236396 c 0,-1.349171 -0.188884,-2.077723 -0.674586,-2.698342 -0.593635,-0.728552 -1.484088,-1.160286 -2.428507,-1.160286 -0.755536,0 -1.457105,0.269834 -1.996773,0.809502 v -0.539668 h -1.888839 v 7.82519 h 1.888839 V 26.9305 Z"/><path fill="#232221" d="m 28.845272,42.985632 v -4.236396 c -0.02698,-1.349171 -0.215868,-2.050739 -0.701569,-2.698341 -0.593635,-0.728553 -1.484088,-1.160287 -2.428508,-1.160287 -0.755535,0 -1.457104,0.269834 -1.996772,0.809502 v -0.539668 h -1.861856 v 7.82519 h 1.888839 v -3.750694 c 0,-1.02537 0.08095,-1.457105 0.323801,-1.834873 0.296818,-0.431734 0.782519,-0.701568 1.295204,-0.701568 1.079337,0 1.592022,0.782519 1.592022,2.401524 v 3.858628 h 1.888839 z"/><path fill="#232221" d="m 28.764321,30.654211 v -1.726938 c -0.944419,0.05397 -1.403137,-0.323801 -1.403137,-1.349171 v -3.07611 h 1.511071 v -1.672971 h -1.511071 v -2.617392 h -1.888839 v 7.366473 c 0,2.023756 1.133303,3.31896 3.291976,3.076109 z"/><path fill="#232221" d="M 8.3108921,44.874472 H 7.2855223 v 7.366472 c 0,2.023756 1.1333035,3.31896 3.2919767,3.07611 v -0.94442 C 9.6330795,54.426601 8.3108921,54.18375 8.3108921,52.240944 V 48.490249 H 10.658449 V 47.54583 H 8.2839087 v -2.671358 z"/><path fill="#232221" d="m 36.724429,46.628394 v -0.94442 h 0.269834 V 45.57604 h -0.674585 v 0.107934 h 0.296818 v 0.94442 z"/><path fill="#232221" d="m 38.019633,46.628394 h 0.107934 L 37.99265,45.57604 h -0.107934 l -0.296818,0.782519 v 0.05397 L 37.560918,46.358559 37.2641,45.57604 h -0.107933 l -0.134917,1.052354 h 0.107933 l 0.08095,-0.809503 c 0,-0.02698 0,-0.05397 0,-0.05397 0,0.02698 0,0.05397 0.02698,0.05397 l 0.296818,0.809503 h 0.05397 l 0.296818,-0.809503 0.02698,-0.05397 v 0.05397 z"/><path fill="#232221" d="M 32.137248,33.40652 V 32.4621 h -0.944419 c -0.512685,0 -0.917436,0.404751 -0.94442,0.94442 v 0.944419 h 0.94442 c 0.512685,-0.02698 0.944419,-0.431734 0.944419,-0.944419 z"/></svg>